<?xml version="1.0" encoding="utf-8"?>
<!-- Generator: Adobe Illustrator 24.1.1, SVG Export Plug-In . SVG Version: 6.00 Build 0)  -->
<svg version="1.1" id="Layer_1" xmlns="http://www.w3.org/2000/svg" xmlns:xlink="http://www.w3.org/1999/xlink" x="0px" y="0px"
	 viewBox="0 0 24 24" enable-background="new 0 0 24 24" xml:space="preserve">
<g>
	
		<linearGradient id="SVGID_2_" gradientUnits="userSpaceOnUse" x1="12" y1="178" x2="12" y2="153.7566" gradientTransform="matrix(1 0 0 1 0 -154)">
		<stop  offset="0" style="stop-color:#FFFFFF"/>
		<stop  offset="0.1716" style="stop-color:#FCFEFF"/>
		<stop  offset="0.323" style="stop-color:#F1FAFE"/>
		<stop  offset="0.4668" style="stop-color:#DFF3FC"/>
		<stop  offset="0.606" style="stop-color:#C5EAF9"/>
		<stop  offset="0.7418" style="stop-color:#A4DFF6"/>
		<stop  offset="0.8733" style="stop-color:#7DD0F2"/>
		<stop  offset="1" style="stop-color:#4FC0EE"/>
	</linearGradient>
	<circle opacity="0.4" fill="url(#SVGID_2_)" enable-background="new    " cx="12" cy="12" r="12"/>
	<rect x="11.6" display="none" fill="#FF0000" width="0.4" height="2.6"/>
	<rect x="11.6" y="21.4" display="none" fill="#FF0000" width="0.4" height="2.6"/>
</g>
<g>
	<g>
		<path id="SVGID_1_" fill="#4FC0EE" d="M12,4.8c0,0-5.6,6.6-5.7,9.3s2.6,5.2,5.7,5.1c3.2,0,5.6-2.4,5.7-5.1
			C17.7,11.3,12,4.8,12,4.8z"/>
	</g>
	<g>
		<g>
			<g>
				<defs>
					<path id="SVGID_3_" d="M12,4.8c0,0-5.6,6.6-5.7,9.3s2.6,5.2,5.7,5.1c3.2,0,5.6-2.4,5.7-5.1C17.7,11.3,12,4.8,12,4.8z"/>
				</defs>
				<clipPath id="SVGID_4_">
					<use xlink:href="#SVGID_3_"  overflow="visible"/>
				</clipPath>
				
					<linearGradient id="SVGID_5_" gradientUnits="userSpaceOnUse" x1="14.1745" y1="-149.3563" x2="14.1745" y2="-132.7563" gradientTransform="matrix(1 0 0 -1 0 -128)">
					<stop  offset="0" style="stop-color:#4FC0EE;stop-opacity:0"/>
					<stop  offset="0.1215" style="stop-color:#4CBAE7;stop-opacity:0.1215"/>
					<stop  offset="1" style="stop-color:#2B94C3"/>
				</linearGradient>
				<path clip-path="url(#SVGID_4_)" fill="url(#SVGID_5_)" d="M12,4.8c0,0,2.2,5.2,2.5,6.3s0.7,3.8-0.8,4.7c-1.5,0.9-4.1,0.1-4.6,0
					s-1.6,0.7-1.3,1.8c0.3,1.1,8.3,3.8,8.3,3.8l4.5-8.7L12,4.8z"/>
			</g>
		</g>
	</g>
	<g>
		<g>
			<g>
				<defs>
					<path id="SVGID_6_" d="M12,4.8c0,0-5.6,6.6-5.7,9.3s2.6,5.2,5.7,5.1c3.2,0,5.6-2.4,5.7-5.1C17.7,11.3,12,4.8,12,4.8z"/>
				</defs>
				<clipPath id="SVGID_7_">
					<use xlink:href="#SVGID_6_"  overflow="visible"/>
				</clipPath>
				<path clip-path="url(#SVGID_7_)" fill="#FFFFFF" d="M8,14.4c0,0-0.7-1.4,0.2-2.7c0.5-0.7,1.6-0.7,1.2,0
					c-0.6,1.2-0.6,1.8-0.4,2.5C9.2,14.7,8.4,15.3,8,14.4z"/>
			</g>
		</g>
	</g>
	<g>
		<g>
			<g>
				<defs>
					<path id="SVGID_8_" d="M12,4.8c0,0-5.6,6.6-5.7,9.3s2.6,5.2,5.7,5.1c3.2,0,5.6-2.4,5.7-5.1C17.7,11.3,12,4.8,12,4.8z"/>
				</defs>
				<clipPath id="SVGID_9_">
					<use xlink:href="#SVGID_8_"  overflow="visible"/>
				</clipPath>
				<path clip-path="url(#SVGID_9_)" fill="none" d="M12,4.8c0,0-5.6,6.6-5.7,9.3s2.6,5.2,5.7,5.1c3.2,0,5.6-2.4,5.7-5.1
					C17.7,11.3,12,4.8,12,4.8z"/>
			</g>
		</g>
	</g>
</g>
</svg>
