<?xml version="1.0" encoding="utf-8"?>
<!-- Generator: Adobe Illustrator 24.1.1, SVG Export Plug-In . SVG Version: 6.00 Build 0)  -->
<svg version="1.1" id="Layer_1" xmlns="http://www.w3.org/2000/svg" xmlns:xlink="http://www.w3.org/1999/xlink" x="0px" y="0px"
	 viewBox="0 0 24 24" enable-background="new 0 0 24 24" xml:space="preserve">
<g>
	<g>
		<path fill="#FFFFFF" d="M9.2,21.1L9.2,21.1c0,1.6,1.3,2.9,2.8,2.9s2.8-1.3,2.8-2.8l0,0H9.2V21.1z"/>
		<path fill="#FFFFFF" d="M18.5,13.8c0-1,0-3.2,0-4.3c-0.3,0.1-0.6,0.1-0.9,0.1c-2.2,0-4-1.8-4-4c0-1,0.3-1.8,0.9-2.5
			c-0.4-0.2-0.9-0.3-1.3-0.4V1.3C13.3,0.6,12.7,0,12,0s-1.3,0.6-1.3,1.3v1.4C7.7,3.3,5.5,6,5.5,9.1c0,1.2,0,4,0,4.7l-2.6,3.8
			c-0.3,0.4-0.3,0.9-0.1,1.3s0.7,0.7,1.1,0.7h16c0.5,0,0.9-0.3,1.1-0.7c0.2-0.4,0.2-0.9-0.1-1.3L18.5,13.8z"/>
	</g>
	<circle fill="#FF2943" cx="17.7" cy="5.7" r="3.2"/>
</g>
</svg>
