<?xml version="1.0" encoding="utf-8"?>
<!-- Generator: Adobe Illustrator 24.1.1, SVG Export Plug-In . SVG Version: 6.00 Build 0)  -->
<svg version="1.1" id="Layer_1" xmlns="http://www.w3.org/2000/svg" xmlns:xlink="http://www.w3.org/1999/xlink" x="0px" y="0px"
	 viewBox="0 0 24 24" enable-background="new 0 0 24 24" xml:space="preserve">
<g>
	
		<linearGradient id="SVGID_2_" gradientUnits="userSpaceOnUse" x1="12" y1="178" x2="12" y2="153.7566" gradientTransform="matrix(1 0 0 1 0 -154)">
		<stop  offset="0" style="stop-color:#FFFFFF"/>
		<stop  offset="0.1703" style="stop-color:#FCFEFC"/>
		<stop  offset="0.3206" style="stop-color:#F1FAF4"/>
		<stop  offset="0.4633" style="stop-color:#DFF3E7"/>
		<stop  offset="0.6015" style="stop-color:#C5E9D4"/>
		<stop  offset="0.7363" style="stop-color:#A4DDBC"/>
		<stop  offset="0.8681" style="stop-color:#7CCD9F"/>
		<stop  offset="0.9962" style="stop-color:#4EBC7C"/>
		<stop  offset="1" style="stop-color:#4CBB7B"/>
	</linearGradient>
	<circle opacity="0.4" fill="url(#SVGID_2_)" enable-background="new    " cx="12" cy="12" r="12"/>
	<rect x="11.6" display="none" fill="#FF0000" width="0.4" height="2.6"/>
	<rect x="11.6" y="21.4" display="none" fill="#FF0000" width="0.4" height="2.6"/>
</g>
<g>
	<g>
		<path id="SVGID_1_" fill="#4CBB7B" d="M18.4,8.1c-0.6-0.3-5.2-2.7-6.2-3.3c-0.1-0.1-0.3-0.1-0.4,0c-1,0.5-5.6,2.9-6.2,3.3
			c0,0,0,0-0.1,0.1c-0.2,0.2-0.3,0.5-0.2,1c0.1,0.5,1.2,9.2,6.6,10.1H12c5.4-0.9,6.5-9.6,6.6-10.1C18.8,8.7,18.7,8.3,18.4,8.1
			C18.5,8.1,18.5,8.1,18.4,8.1z"/>
	</g>
	<g>
		<g>
			<g>
				<defs>
					<path id="SVGID_3_" d="M18.4,8.1c-0.6-0.3-5.2-2.7-6.2-3.3c-0.1-0.1-0.3-0.1-0.4,0c-1,0.5-5.6,2.9-6.2,3.3c0,0,0,0-0.1,0.1
						c-0.2,0.2-0.3,0.5-0.2,1c0.1,0.5,1.2,9.2,6.6,10.1H12c5.4-0.9,6.5-9.6,6.6-10.1C18.8,8.7,18.7,8.3,18.4,8.1
						C18.5,8.1,18.5,8.1,18.4,8.1z"/>
				</defs>
				<clipPath id="SVGID_4_">
					<use xlink:href="#SVGID_3_"  overflow="visible"/>
				</clipPath>
				
					<rect x="12" y="4" opacity="0.5" clip-path="url(#SVGID_4_)" fill="#33B55F" enable-background="new    " width="6.9" height="16.4"/>
			</g>
		</g>
	</g>
	<g>
		<g>
			<g>
				<defs>
					<path id="SVGID_5_" d="M18.4,8.1c-0.6-0.3-5.2-2.7-6.2-3.3c-0.1-0.1-0.3-0.1-0.4,0c-1,0.5-5.6,2.9-6.2,3.3c0,0,0,0-0.1,0.1
						c-0.2,0.2-0.3,0.5-0.2,1c0.1,0.5,1.2,9.2,6.6,10.1H12c5.4-0.9,6.5-9.6,6.6-10.1C18.8,8.7,18.7,8.3,18.4,8.1
						C18.5,8.1,18.5,8.1,18.4,8.1z"/>
				</defs>
				<clipPath id="SVGID_6_">
					<use xlink:href="#SVGID_5_"  overflow="visible"/>
				</clipPath>
				
					<linearGradient id="SVGID_7_" gradientUnits="userSpaceOnUse" x1="12" y1="-139.7" x2="23.2438" y2="-139.7" gradientTransform="matrix(1 0 0 -1 0 -128)">
					<stop  offset="0" style="stop-color:#48BA7A;stop-opacity:0"/>
					<stop  offset="0.611" style="stop-color:#3CA268;stop-opacity:0.611"/>
					<stop  offset="1" style="stop-color:#379961"/>
				</linearGradient>
				<path clip-path="url(#SVGID_6_)" fill="url(#SVGID_7_)" d="M12,4.9c0,0,4.8,3,5.1,3.2c0.3,0.2-0.4,9.6-5.1,11
					c7.7-1.2,11.2-8,11.2-8l-7.1-6.8L12,4.9z"/>
			</g>
		</g>
	</g>
	<g>
		<g>
			<g>
				<defs>
					<path id="SVGID_8_" d="M18.4,8.1c-0.6-0.3-5.2-2.7-6.2-3.3c-0.1-0.1-0.3-0.1-0.4,0c-1,0.5-5.6,2.9-6.2,3.3c0,0,0,0-0.1,0.1
						c-0.2,0.2-0.3,0.5-0.2,1c0.1,0.5,1.2,9.2,6.6,10.1H12c5.4-0.9,6.5-9.6,6.6-10.1C18.8,8.7,18.7,8.3,18.4,8.1
						C18.5,8.1,18.5,8.1,18.4,8.1z"/>
				</defs>
				<clipPath id="SVGID_9_">
					<use xlink:href="#SVGID_8_"  overflow="visible"/>
				</clipPath>
				<g clip-path="url(#SVGID_9_)">
					<g>
						<path fill="#FFFFFF" stroke="#FFFFFF" stroke-width="0.4802" stroke-miterlimit="10" d="M14.4,10.4c-0.1-0.1-0.2-0.1-0.2,0
							l0,0l-2.8,2.8l-0.9-0.9c-0.1-0.1-0.2-0.1-0.2,0s-0.1,0.2,0,0.2l1,1c0.1,0.1,0.2,0.1,0.2,0l2.9-2.9
							C14.5,10.6,14.5,10.5,14.4,10.4z"/>
					</g>
				</g>
			</g>
		</g>
	</g>
</g>
</svg>
