<?xml version="1.0" encoding="utf-8"?>
<!-- Generator: Adobe Illustrator 24.1.1, SVG Export Plug-In . SVG Version: 6.00 Build 0)  -->
<svg version="1.1" id="Layer_1" xmlns="http://www.w3.org/2000/svg" xmlns:xlink="http://www.w3.org/1999/xlink" x="0px" y="0px"
	 viewBox="0 0 24 24" enable-background="new 0 0 24 24" xml:space="preserve">
<g>
	<path fill="#4D3087" d="M22.67,10.4L12.01,0.13L7.9,4.4c0.55,0.46,0.9,1.14,0.9,1.91c0,1.37-1.11,2.49-2.49,2.49
		c-0.73,0-1.39-0.32-1.85-0.83L0.2,12.4l10.67,10.27c1.72,1.66,4.46,1.61,6.12-0.12l5.8-6.03C24.45,14.8,24.4,12.05,22.67,10.4z"/>
	<path fill="#4D3087" d="M4.45,7.97C4.06,7.53,3.82,6.95,3.82,6.31c0-1.37,1.11-2.49,2.49-2.49c0.6,0,1.16,0.21,1.59,0.57L12,0.12
		L2.67,0.27C1.16,0.3-0.03,1.54,0,3.04l0.21,9.34L4.45,7.97z"/>
</g>
</svg>
