<?xml version="1.0" encoding="utf-8"?>
<!-- Generator: Adobe Illustrator 24.1.1, SVG Export Plug-In . SVG Version: 6.00 Build 0)  -->
<svg version="1.1" id="Layer_1" xmlns="http://www.w3.org/2000/svg" xmlns:xlink="http://www.w3.org/1999/xlink" x="0px" y="0px"
	 viewBox="0 0 24 24" enable-background="new 0 0 24 24" xml:space="preserve">
<g>
	
		<linearGradient id="SVGID_2_" gradientUnits="userSpaceOnUse" x1="12" y1="178" x2="12" y2="153.7566" gradientTransform="matrix(1 0 0 1 0 -154)">
		<stop  offset="0" style="stop-color:#FFFFFF"/>
		<stop  offset="0.1682" style="stop-color:#FFFCFC"/>
		<stop  offset="0.3167" style="stop-color:#FEF4F1"/>
		<stop  offset="0.4576" style="stop-color:#FDE7DF"/>
		<stop  offset="0.5941" style="stop-color:#FBD4C5"/>
		<stop  offset="0.7272" style="stop-color:#F9BBA4"/>
		<stop  offset="0.8579" style="stop-color:#F69D7C"/>
		<stop  offset="0.9844" style="stop-color:#F37A4D"/>
		<stop  offset="1" style="stop-color:#F37547"/>
	</linearGradient>
	<circle opacity="0.4" fill="url(#SVGID_2_)" enable-background="new    " cx="12" cy="12" r="12"/>
	<rect x="11.6" display="none" fill="#FF0000" width="0.4" height="2.6"/>
	<rect x="11.6" y="21.4" display="none" fill="#FF0000" width="0.4" height="2.6"/>
</g>
<g>
	<rect x="11" y="16.8" fill="#EB4324" width="2" height="1.6"/>
	<path fill="#EB4324" d="M15.8,19.2H8.2c-0.2,0-0.5-0.2-0.5-0.5v-0.3C7.8,18.2,8,18,8.2,18h7.5c0.2,0,0.5,0.2,0.5,0.5v0.3
		C16.2,19,16,19.2,15.8,19.2z"/>
	<path fill="#EB4324" d="M18.1,17.1H5.9c-1.1,0-2-0.9-2-2V6.8c0-1.1,0.9-2,2-2h12.2c1.1,0,2,0.9,2,2v8.3
		C20.1,16.2,19.2,17.1,18.1,17.1z"/>
	<g>
		<g>
			<path id="SVGID_1_" fill="#F37547" d="M17.6,16.2H6.4c-0.8,0-1.4-0.6-1.4-1.4V7c0-0.8,0.6-1.4,1.4-1.4h11.2C18.4,5.6,19,6.3,19,7
				v7.8C19,15.6,18.4,16.2,17.6,16.2z"/>
		</g>
		<g>
			<g>
				<g>
					<defs>
						<path id="SVGID_3_" d="M17.6,16.2H6.4c-0.8,0-1.4-0.6-1.4-1.4V7c0-0.8,0.6-1.4,1.4-1.4h11.2C18.4,5.6,19,6.3,19,7v7.8
							C19,15.6,18.4,16.2,17.6,16.2z"/>
					</defs>
					<clipPath id="SVGID_4_">
						<use xlink:href="#SVGID_3_"  overflow="visible"/>
					</clipPath>
					<polygon clip-path="url(#SVGID_4_)" fill="#F47F54" points="5,16.3 20.7,5.7 20.3,17.6 3.8,17.8 					"/>
				</g>
			</g>
		</g>
		<g>
			<g>
				<g>
					<defs>
						<path id="SVGID_5_" d="M17.6,16.2H6.4c-0.8,0-1.4-0.6-1.4-1.4V7c0-0.8,0.6-1.4,1.4-1.4h11.2C18.4,5.6,19,6.3,19,7v7.8
							C19,15.6,18.4,16.2,17.6,16.2z"/>
					</defs>
					<clipPath id="SVGID_6_">
						<use xlink:href="#SVGID_5_"  overflow="visible"/>
					</clipPath>
					<path clip-path="url(#SVGID_6_)" fill="#FFFFFF" d="M14.2,10.8L11.1,9c-0.2-0.1-0.5,0-0.5,0.3v3.5c0,0.2,0.2,0.4,0.5,0.3
						l3.1-1.8C14.4,11.2,14.4,10.9,14.2,10.8z"/>
				</g>
			</g>
		</g>
	</g>
</g>
</svg>
