<?xml version="1.0" encoding="utf-8"?>
<!-- Generator: Adobe Illustrator 24.1.1, SVG Export Plug-In . SVG Version: 6.00 Build 0)  -->
<svg version="1.1" id="Layer_1" xmlns="http://www.w3.org/2000/svg" xmlns:xlink="http://www.w3.org/1999/xlink" x="0px" y="0px"
	 viewBox="0 0 24 24" enable-background="new 0 0 24 24" xml:space="preserve">
<g>
	
		<linearGradient id="SVGID_2_" gradientUnits="userSpaceOnUse" x1="12" y1="178" x2="12" y2="153.7566" gradientTransform="matrix(1 0 0 1 0 -154)">
		<stop  offset="0" style="stop-color:#FFFFFF"/>
		<stop  offset="0.169" style="stop-color:#FCFDFE"/>
		<stop  offset="0.3182" style="stop-color:#F1F7FC"/>
		<stop  offset="0.4599" style="stop-color:#DFEDF7"/>
		<stop  offset="0.597" style="stop-color:#C5DEF1"/>
		<stop  offset="0.7309" style="stop-color:#A4CCE9"/>
		<stop  offset="0.8622" style="stop-color:#7CB5DF"/>
		<stop  offset="0.9893" style="stop-color:#4D9AD4"/>
		<stop  offset="1" style="stop-color:#4998D3"/>
	</linearGradient>
	<circle opacity="0.4" fill="url(#SVGID_2_)" enable-background="new    " cx="12" cy="12" r="12"/>
	<rect x="11.8" display="none" fill="#FF0000" width="0.4" height="2.6"/>
	<rect x="11.8" y="21.4" display="none" fill="#FF0000" width="0.4" height="2.6"/>
</g>
<g>
	<path fill="#2781C4" d="M17.5,12.1H6.6c-0.2,0-0.4,0.2-0.4,0.4l1.3,6.4c0,0.2,0.2,0.3,0.4,0.3h8.4c0.2,0,0.3-0.1,0.4-0.3l1.2-6.4
		C17.9,12.3,17.7,12.1,17.5,12.1z"/>
	<path fill="#143D66" d="M12,15.1L12,15.1c-1,0-1.8,0.8-1.8,1.8v2.3h3.5v-2.3C13.8,15.9,13,15.1,12,15.1z"/>
	<g>
		<g>
			<path id="SVGID_1_" fill="#4998D3" d="M18.9,13l-3.6-6.2c-0.1-0.2-0.3-0.3-0.5-0.3H12H9.1c-0.2,0-0.4,0.1-0.5,0.3L5.1,13
				c-0.3,0.6,0.1,1.3,0.7,1.3H12h6.2C18.8,14.3,19.2,13.6,18.9,13z"/>
		</g>
		<g>
			<g>
				<g>
					<defs>
						<path id="SVGID_3_" d="M18.9,13l-3.6-6.2c-0.1-0.2-0.3-0.3-0.5-0.3H12H9.1c-0.2,0-0.4,0.1-0.5,0.3L5.1,13
							c-0.3,0.6,0.1,1.3,0.7,1.3H12h6.2C18.8,14.3,19.2,13.6,18.9,13z"/>
					</defs>
					<clipPath id="SVGID_4_">
						<use xlink:href="#SVGID_3_"  overflow="visible"/>
					</clipPath>
					
						<linearGradient id="SVGID_5_" gradientUnits="userSpaceOnUse" x1="19.3869" y1="-131.3589" x2="19.3869" y2="-121.4001" gradientTransform="matrix(0.9994 0.0334 0.0334 -0.9994 -0.6018 -115.9632)">
						<stop  offset="0" style="stop-color:#4398D3;stop-opacity:0"/>
						<stop  offset="0.1963" style="stop-color:#3F91CE;stop-opacity:0.1998"/>
						<stop  offset="0.5398" style="stop-color:#317FC0;stop-opacity:0.5496"/>
						<stop  offset="0.9823" style="stop-color:#1766AE"/>
					</linearGradient>
					<path clip-path="url(#SVGID_4_)" fill="url(#SVGID_5_)" d="M13.5,6.5c0,0-1.2,0.2-0.7,1.4s0.4,2.8-1.3,3.6S8.9,12.8,8.3,14
						s-0.5,1.7-0.5,1.7H21l-0.5-9.4L13.5,6.5z"/>
				</g>
			</g>
		</g>
	</g>
	<path fill="#4998D3" d="M10.2,4.8L10.2,4.8c-0.5,0-0.9,0.4-0.9,0.9v1.1h1.9V5.7C11.1,5.2,10.7,4.8,10.2,4.8z"/>
</g>
</svg>
