<?xml version="1.0" encoding="utf-8"?>
<!-- Generator: Adobe Illustrator 24.1.1, SVG Export Plug-In . SVG Version: 6.00 Build 0)  -->
<svg version="1.1" id="Layer_1" xmlns="http://www.w3.org/2000/svg" xmlns:xlink="http://www.w3.org/1999/xlink" x="0px" y="0px"
	 viewBox="0 0 24 24" enable-background="new 0 0 24 24" xml:space="preserve">
<g>
	<path fill="#00B3B9" d="M21.41,19.23H1.69c-0.87,0-1.57-0.7-1.57-1.57V3.74c0-0.87,0.7-1.57,1.57-1.57h19.72
		c0.87,0,1.57,0.7,1.57,1.57v13.92C22.98,18.52,22.28,19.23,21.41,19.23z"/>
	<path fill="#9CD8D8" d="M19.89,18.09H3.21c-0.87,0-1.57-0.7-1.57-1.57V4.88c0-0.87,0.7-1.57,1.57-1.57h16.68
		c0.87,0,1.57,0.7,1.57,1.57v11.65C21.46,17.39,20.76,18.09,19.89,18.09z"/>
	<circle fill="#00B3B9" cx="18.11" cy="16.06" r="5.76"/>
	<path fill="#FFFFFF" d="M18.47,19.51h-0.63c-0.29,0-0.53-0.24-0.53-0.53v-5.96c0-0.29,0.24-0.53,0.53-0.53h0.63
		c0.29,0,0.53,0.24,0.53,0.53v5.96C19,19.27,18.77,19.51,18.47,19.51z"/>
	<path fill="#FFFFFF" d="M14.58,15.69v0.62c0,0.29,0.23,0.52,0.52,0.52h6.13c0.29,0,0.52-0.23,0.52-0.52v-0.62
		c0-0.29-0.23-0.52-0.52-0.52H15.1C14.81,15.17,14.58,15.4,14.58,15.69z"/>
	<path fill="#00B3B9" d="M3.66,14.86v0.62c0,0.29,0.23,0.52,0.52,0.52h6.13c0.29,0,0.52-0.23,0.52-0.52v-0.62
		c0-0.29-0.23-0.52-0.52-0.52H4.17C3.89,14.35,3.66,14.58,3.66,14.86z"/>
	<rect x="1.33" y="7.6" fill="#00B3B9" width="20.34" height="0.75"/>
</g>
</svg>
