<?xml version="1.0" encoding="utf-8"?>
<!-- Generator: Adobe Illustrator 24.1.1, SVG Export Plug-In . SVG Version: 6.00 Build 0)  -->
<svg version="1.1" id="Layer_1" xmlns="http://www.w3.org/2000/svg" xmlns:xlink="http://www.w3.org/1999/xlink" x="0px" y="0px"
	 viewBox="0 0 24 24" enable-background="new 0 0 24 24" xml:space="preserve">
<g>
	
		<linearGradient id="SVGID_1_" gradientUnits="userSpaceOnUse" x1="12" y1="178" x2="12" y2="153.7566" gradientTransform="matrix(1 0 0 1 0 -154)">
		<stop  offset="0" style="stop-color:#FFFFFF"/>
		<stop  offset="0.1643" style="stop-color:#FCFEFC"/>
		<stop  offset="0.3092" style="stop-color:#F1FAF5"/>
		<stop  offset="0.4469" style="stop-color:#DFF3E8"/>
		<stop  offset="0.5801" style="stop-color:#C5EAD6"/>
		<stop  offset="0.7101" style="stop-color:#A4DEBE"/>
		<stop  offset="0.8378" style="stop-color:#7CCFA1"/>
		<stop  offset="0.9612" style="stop-color:#4DBE80"/>
		<stop  offset="1" style="stop-color:#3DB874"/>
	</linearGradient>
	<circle opacity="0.4" fill="url(#SVGID_1_)" enable-background="new    " cx="12" cy="12" r="12"/>
	<rect x="11.6" display="none" fill="#FF0000" width="0.4" height="2.6"/>
	<rect x="11.6" y="21.4" display="none" fill="#FF0000" width="0.4" height="2.6"/>
</g>
<g>
	<g>
		<path fill="#3DB874" d="M12,5.6c3.5,0,6.4,2.9,6.4,6.4s-2.9,6.4-6.4,6.4S5.6,15.5,5.6,12S8.5,5.6,12,5.6 M12,4.8
			C8,4.8,4.8,8,4.8,12S8,19.2,12,19.2s7.2-3.2,7.2-7.2S16,4.8,12,4.8L12,4.8z"/>
	</g>
	<g>
		<path fill="#3DB874" d="M12,9.3c3.9,0,6.4,1.5,6.4,2.5s-2.5,2.5-6.4,2.5s-6.4-1.5-6.4-2.5S8.1,9.3,12,9.3 M12,8.4
			c-4,0-7.2,1.5-7.2,3.4S8,15.1,12,15.1s7.2-1.5,7.2-3.4S16,8.4,12,8.4L12,8.4z"/>
	</g>
	<g>
		<path fill="#3DB874" d="M12,5.4c0.4,0.3,1.3,2.4,1.3,6.6s-0.9,6.2-1.3,6.6c-0.4-0.3-1.3-2.4-1.3-6.6S11.6,5.8,12,5.4 M12,4.8
			c-1.1,0-1.9,3.2-1.9,7.2s0.9,7.2,1.9,7.2s1.9-3.2,1.9-7.2S13.1,4.8,12,4.8L12,4.8z"/>
	</g>
	<g>
		<line fill="none" stroke="#3DB874" stroke-width="0.863" stroke-miterlimit="10" x1="4.9" y1="11.9" x2="19" y2="11.9"/>
	</g>
	<ellipse fill="none" stroke="#3DB874" stroke-width="0.863" stroke-miterlimit="10" cx="11.9" cy="12.1" rx="4.7" ry="6.7"/>
</g>
</svg>
