<?xml version="1.0" encoding="utf-8"?>
<!-- Generator: Adobe Illustrator 24.1.1, SVG Export Plug-In . SVG Version: 6.00 Build 0)  -->
<svg version="1.1" id="Layer_1" xmlns="http://www.w3.org/2000/svg" xmlns:xlink="http://www.w3.org/1999/xlink" x="0px" y="0px"
	 viewBox="0 0 24 24" enable-background="new 0 0 24 24" xml:space="preserve">
<linearGradient id="SVGID_2_" gradientUnits="userSpaceOnUse" x1="12" y1="178" x2="12" y2="153.7566" gradientTransform="matrix(1 0 0 1 0 -154)">
	<stop  offset="0" style="stop-color:#FFFFFF"/>
	<stop  offset="0.1516" style="stop-color:#FFFEFC"/>
	<stop  offset="0.2854" style="stop-color:#FFFBF1"/>
	<stop  offset="0.4125" style="stop-color:#FFF5DF"/>
	<stop  offset="0.5354" style="stop-color:#FEEDC5"/>
	<stop  offset="0.6555" style="stop-color:#FEE2A4"/>
	<stop  offset="0.7733" style="stop-color:#FDD67C"/>
	<stop  offset="0.8871" style="stop-color:#FDC74D"/>
	<stop  offset="1" style="stop-color:#FCB617"/>
</linearGradient>
<circle opacity="0.4" fill="url(#SVGID_2_)" enable-background="new    " cx="12" cy="12" r="12"/>
<g id="PLN">
	<g>
		<g>
			<path id="SVGID_1_" fill="#F9A21E" d="M13.4,4.8c-2,2.4-4.1,4.8-6.1,7.1c-0.1,0.1,0,0.2,0.1,0.3l4,1.7L10.5,19
				c0,0.2,0.2,0.3,0.3,0.1l6-7.8c0.1-0.1,0-0.2-0.1-0.3l-3.6-1.2c0.2-1.6,0.4-3.3,0.6-4.9C13.7,4.8,13.5,4.7,13.4,4.8z"/>
		</g>
		<g>
			<g>
				<g>
					<defs>
						<path id="SVGID_3_" d="M13.4,4.8c-2,2.4-4.1,4.8-6.1,7.1c-0.1,0.1,0,0.2,0.1,0.3l4,1.7L10.5,19c0,0.2,0.2,0.3,0.3,0.1l6-7.8
							c0.1-0.1,0-0.2-0.1-0.3l-3.6-1.2c0.2-1.6,0.4-3.3,0.6-4.9C13.7,4.8,13.5,4.7,13.4,4.8z"/>
					</defs>
					<clipPath id="SVGID_4_">
						<use xlink:href="#SVGID_3_"  overflow="visible"/>
					</clipPath>
					<path clip-path="url(#SVGID_4_)" fill="#FDB718" d="M13.6,4.8l-3.2,6.1c0.2,0.1,3.7,1,3.7,1l-3.5,7.4l-5.4-8.5l7.9-7.6L13.7,5"
						/>
				</g>
			</g>
		</g>
		<g>
			<g>
				<g>
					<defs>
						<path id="SVGID_5_" d="M13.4,4.8c-2,2.4-4.1,4.8-6.1,7.1c-0.1,0.1,0,0.2,0.1,0.3l4,1.7L10.5,19c0,0.2,0.2,0.3,0.3,0.1l6-7.8
							c0.1-0.1,0-0.2-0.1-0.3l-3.6-1.2c0.2-1.6,0.4-3.3,0.6-4.9C13.7,4.8,13.5,4.7,13.4,4.8z"/>
					</defs>
					<clipPath id="SVGID_6_">
						<use xlink:href="#SVGID_5_"  overflow="visible"/>
					</clipPath>
					<path clip-path="url(#SVGID_6_)" fill="none" d="M13.4,4.8c-2,2.4-4.1,4.8-6.1,7.1c-0.1,0.1,0,0.2,0.1,0.3l4,1.7L10.5,19
						c0,0.2,0.2,0.3,0.3,0.1l6-7.8c0.1-0.1,0-0.2-0.1-0.3l-3.6-1.2c0.2-1.6,0.4-3.3,0.6-4.9C13.7,4.8,13.5,4.7,13.4,4.8z"/>
				</g>
			</g>
		</g>
	</g>
</g>
<rect x="11.6" display="none" fill="#FF0000" width="1.7" height="4.8"/>
<rect x="11.6" y="19.4" display="none" fill="#FF0000" width="1.7" height="4.6"/>
</svg>
