<?xml version="1.0" encoding="utf-8"?>
<!-- Generator: Adobe Illustrator 24.1.1, SVG Export Plug-In . SVG Version: 6.00 Build 0)  -->
<svg version="1.1" id="Layer_1" xmlns="http://www.w3.org/2000/svg" xmlns:xlink="http://www.w3.org/1999/xlink" x="0px" y="0px"
	 viewBox="0 0 24 24" enable-background="new 0 0 24 24" xml:space="preserve">
<path fill="#4D3087" d="M12,0C5.37,0,0,5.37,0,12s5.37,12,12,12s12-5.37,12-12S18.63,0,12,0z M12,4.86c2.02,0,3.65,1.63,3.65,3.65
	c0,2.02-1.63,3.65-3.65,3.65c-2.02,0-3.65-1.63-3.65-3.65C8.35,6.49,9.98,4.86,12,4.86z M12,21.67c-4.02,0-7.28-1.86-7.28-4.16
	s3.26-4.16,7.28-4.16s7.28,1.86,7.28,4.16S16.02,21.67,12,21.67z"/>
</svg>
