<?xml version="1.0" encoding="utf-8"?>
<!-- Generator: Adobe Illustrator 24.1.1, SVG Export Plug-In . SVG Version: 6.00 Build 0)  -->
<svg version="1.1" id="Layer_1" xmlns="http://www.w3.org/2000/svg" xmlns:xlink="http://www.w3.org/1999/xlink" x="0px" y="0px"
	 viewBox="0 0 24 24" enable-background="new 0 0 24 24" xml:space="preserve">
<g>
	
		<linearGradient id="SVGID_2_" gradientUnits="userSpaceOnUse" x1="12" y1="178" x2="12" y2="153.7566" gradientTransform="matrix(1 0 0 1 0 -154)">
		<stop  offset="0" style="stop-color:#FFFFFF"/>
		<stop  offset="0.1921" style="stop-color:#FCFCFE"/>
		<stop  offset="0.3615" style="stop-color:#F1F5FA"/>
		<stop  offset="0.5225" style="stop-color:#DFE8F4"/>
		<stop  offset="0.6781" style="stop-color:#C5D5EC"/>
		<stop  offset="0.8301" style="stop-color:#A4BEE1"/>
		<stop  offset="0.9772" style="stop-color:#7DA1D3"/>
		<stop  offset="1" style="stop-color:#769CD1"/>
	</linearGradient>
	<circle opacity="0.4" fill="url(#SVGID_2_)" enable-background="new    " cx="12" cy="12" r="12"/>
	<g display="none">
		<rect x="11.2" display="inline" fill="#FF0000" width="1.7" height="4.8"/>
		<rect x="11.2" y="19.4" display="inline" fill="#FF0000" width="1.7" height="4.6"/>
	</g>
</g>
<g id="Pulsa">
	<rect x="10.4" y="16.2" fill="#FFFFFF" width="3" height="2.4"/>
	<path fill="#3B6BB3" d="M14.9,4.8H9.2c-0.9,0-1.6,0.7-1.6,1.6v11.2c0,0.9,0.7,1.6,1.6,1.6h5.7c0.9,0,1.6-0.7,1.6-1.6V6.4
		C16.5,5.5,15.8,4.8,14.9,4.8z M12,18.3c-0.5,0-1-0.4-1-1c0-0.5,0.4-1,1-1c0.5,0,1,0.4,1,1C12.9,17.9,12.5,18.3,12,18.3z"/>
	<g>
		<g>
			<path id="SVGID_1_" fill="#6A90CA" d="M13.7,15.6h-3.3c-1.1,0-2-0.9-2-2V7.7c0-1.1,0.9-2,2-2h3.3c1.1,0,2,0.9,2,2v6
				C15.6,14.7,14.7,15.6,13.7,15.6z"/>
		</g>
		<g>
			<g>
				<g>
					<g>
						<defs>
							<path id="SVGID_3_" d="M13.7,15.6h-3.3c-1.1,0-2-0.9-2-2V7.7c0-1.1,0.9-2,2-2h3.3c1.1,0,2,0.9,2,2v6
								C15.6,14.7,14.7,15.6,13.7,15.6z"/>
						</defs>
						<clipPath id="SVGID_4_">
							<use xlink:href="#SVGID_3_"  overflow="visible"/>
						</clipPath>
						<polygon clip-path="url(#SVGID_4_)" fill="#769CD1" points="15.6,6.4 9.5,16.2 18.5,16.7 17.2,6.5 						"/>
					</g>
				</g>
			</g>
		</g>
		<g>
			<g>
				<g>
					<g>
						<defs>
							<path id="SVGID_5_" d="M13.7,15.6h-3.3c-1.1,0-2-0.9-2-2V7.7c0-1.1,0.9-2,2-2h3.3c1.1,0,2,0.9,2,2v6
								C15.6,14.7,14.7,15.6,13.7,15.6z"/>
						</defs>
						<clipPath id="SVGID_6_">
							<use xlink:href="#SVGID_5_"  overflow="visible"/>
						</clipPath>
						<path clip-path="url(#SVGID_6_)" fill="none" d="M13.7,15.6h-3.3c-1.1,0-2-0.9-2-2V7.7c0-1.1,0.9-2,2-2h3.3c1.1,0,2,0.9,2,2v6
							C15.6,14.7,14.7,15.6,13.7,15.6z"/>
					</g>
				</g>
			</g>
		</g>
	</g>
	<g>
		<g>
			<path fill="#FFFFFF" d="M12.4,12.8C12.4,12.8,12.4,12.7,12.4,12.8V9.5v0.1c0.1,0.1,0.1,0.1,0.1,0.2l0.9,0.9
				c0.2,0.1,0.4,0.1,0.5,0.1c0.1-0.1,0.2-0.3,0.1-0.5c0,0,0,0-0.1-0.1l-1.6-1.6c-0.1-0.1-0.4-0.1-0.5,0l0,0l-1.6,1.6
				c-0.1,0.1-0.1,0.4,0,0.5c0,0,0,0,0.1,0.1s0.3,0.1,0.4-0.1l0.9-0.9c0.1-0.1,0.1-0.1,0.1-0.2l0.1-0.1v3.2c0,0.2,0.1,0.3,0.3,0.4
				C12.3,13.1,12.4,13,12.4,12.8z"/>
		</g>
	</g>
</g>
</svg>
