<?xml version="1.0" encoding="utf-8"?>
<!-- Generator: Adobe Illustrator 24.1.1, SVG Export Plug-In . SVG Version: 6.00 Build 0)  -->
<svg version="1.1" id="Layer_1" xmlns="http://www.w3.org/2000/svg" xmlns:xlink="http://www.w3.org/1999/xlink" x="0px" y="0px"
	 viewBox="0 0 24 24" enable-background="new 0 0 24 24" xml:space="preserve">
<g>
	
		<path fill="none" stroke="#FFFFFF" stroke-width="1.5331" stroke-linecap="round" stroke-linejoin="round" stroke-miterlimit="10" d="
		M1.39,7.55"/>
	
		<path fill="none" stroke="#FFFFFF" stroke-width="1.5331" stroke-linecap="round" stroke-linejoin="round" stroke-miterlimit="10" d="
		M22.61,16.31c0,1.44,0,2.88,0,4.32c0,0.13-0.01,0.83-0.58,1.4c-0.36,0.36-0.85,0.58-1.4,0.58H3.37c-1.09,0-1.98-0.89-1.98-1.98
		c0-1.42,0-2.83,0-4.25"/>
	
		<path fill="none" stroke="#FFFFFF" stroke-width="1.5331" stroke-linecap="round" stroke-linejoin="round" stroke-miterlimit="10" d="
		M1.39,7.55V3.37c0-1.09,0.89-1.98,1.98-1.98h17.26c1.09,0,1.98,0.89,1.98,1.98c0,1.39,0,2.78,0,4.18"/>
	<path fill="#FFFFFF" d="M22.99,12.86H1.01C0.45,12.86,0,12.41,0,11.85l0,0c0-0.56,0.45-1.01,1.01-1.01h21.98
		c0.56,0,1.01,0.45,1.01,1.01v0C24,12.41,23.55,12.86,22.99,12.86z"/>
</g>
</svg>
