<?xml version="1.0" encoding="utf-8"?>
<!-- Generator: Adobe Illustrator 24.1.1, SVG Export Plug-In . SVG Version: 6.00 Build 0)  -->
<svg version="1.1" id="Layer_1" xmlns="http://www.w3.org/2000/svg" xmlns:xlink="http://www.w3.org/1999/xlink" x="0px" y="0px"
	 viewBox="0 0 24 24" enable-background="new 0 0 24 24" xml:space="preserve">
<g>
	<path opacity="0.15" fill="#4D3087" d="M7.34,20.84c0,0-5.65-7.53,0.34-13.25s13.66,0.34,13.66,0.34l-0.98-2.8l-4.93-3.68h-6.4
		L2.9,5.22l-2.03,5.57l1.69,7.19l4.33,3.24L7.34,20.84z"/>
	<path fill="none" stroke="#4D3087" stroke-width="1.7469" stroke-linecap="round" stroke-miterlimit="10" d="M22.87,11.89
		c0.05-2.56-0.74-5.06-2.34-7.02C16.94,0.46,9.86-0.56,5.06,3.41C0.12,7.5,0.26,14.71,3.6,18.87c2.83,3.53,7.21,3.92,8.17,3.98"/>
	<path fill="#4D3087" d="M22.49,16.86h-3.67c-0.12,0-0.22-0.1-0.22-0.22v-3.67c0-0.6-0.48-1.08-1.08-1.08
		c-0.6,0-1.08,0.48-1.08,1.08v3.67c0,0.12-0.1,0.22-0.22,0.22h-3.67c-0.6,0-1.08,0.48-1.08,1.08s0.48,1.08,1.08,1.08h3.67
		c0.12,0,0.22,0.1,0.22,0.22v3.67c0,0.6,0.48,1.08,1.08,1.08c0.6,0,1.08-0.48,1.08-1.08v-3.67c0-0.12,0.1-0.22,0.22-0.22h3.67
		c0.6,0,1.08-0.48,1.08-1.08S23.09,16.86,22.49,16.86z"/>
</g>
</svg>
