<?xml version="1.0" encoding="utf-8"?>
<!-- Generator: Adobe Illustrator 24.1.1, SVG Export Plug-In . SVG Version: 6.00 Build 0)  -->
<svg version="1.1" id="Layer_1" xmlns="http://www.w3.org/2000/svg" xmlns:xlink="http://www.w3.org/1999/xlink" x="0px" y="0px"
	 viewBox="0 0 24 24" enable-background="new 0 0 24 24" xml:space="preserve">
<g>
	<path opacity="0.15" fill="#4E3087" d="M2.52,8.03c0,0,7.17-8.13,14.01-2.32s-1.17,11.44-1.17,11.44s-3.23,1.9-1.75,4.56
		c2.13,0.72,5.93-1.63,5.93-1.63l3.53-5.43l-0.27-5.85L19.21,3.2l-7.03-2.09L6.4,2.52L2.52,8.03z"/>
	<path fill="none" stroke="#4D3087" stroke-width="1.764" stroke-linecap="round" stroke-miterlimit="10" d="M15.6,22.49
		c4.5-1.76,7.48-5.91,7.51-10.36c0.04-5.74-4.82-11.09-11.09-11.09C5.53,1.04,1,6.74,0.92,12.13c-0.07,4.57,3.09,7.69,3.79,8.35"/>
	<g>
		<g>
			<path fill="#4E3087" d="M12.64,19.01C12.64,19.01,12.64,18.86,12.64,19.01v-0.3v-7.7l0,0c0.04,0.06,0.07,0.13,0.1,0.19
				c0.15,0.27,0.32,0.5,0.51,0.72c0,0,0.01,0.01,0.01,0.01l1.89,1.89c0.43,0.28,0.85,0.3,1.28,0.17c0.04-0.01,0.07-0.03,0.1-0.06
				c0.27-0.3,0.39-0.72,0.11-1.14c0,0,0,0-0.15-0.15l-3.85-3.85c-0.41-0.41-1.07-0.41-1.48,0l-3.7,3.7c-0.41,0.41-0.41,1.07,0,1.48
				l0,0c0.15,0.15,0.74,0.15,0.89-0.15l2.16-2.16c0.04-0.04,0.09-0.09,0.12-0.14c0.1-0.13,0.17-0.24,0.24-0.37l0.15-0.3v7.85
				c0,0.43,0.28,0.72,0.7,0.87c0.03,0.01,0.06,0.01,0.09,0.01C12.54,19.57,12.64,19.44,12.64,19.01z"/>
		</g>
	</g>
	<path fill="#4E3087" d="M16.32,21.2c0,0-3.56,2.15-3.68-3.61c-1.14-0.17-1.63-0.08-1.63-0.08v1.2c0,0,0,7.37,6.18,4.03
		C17.38,21.75,16.32,21.2,16.32,21.2z"/>
</g>
</svg>
